<?xml version="1.0" encoding="utf-8" standalone="no"?>
<!DOCTYPE svg PUBLIC "-//W3C//DTD SVG 1.1//EN"
  "http://www.w3.org/Graphics/SVG/1.1/DTD/svg11.dtd">
<svg xmlns:xlink="http://www.w3.org/1999/xlink" width="968.496875pt" height="909.4125pt" viewBox="0 0 968.496875 909.4125" xmlns="http://www.w3.org/2000/svg" version="1.1">
 <metadata>
  <rdf:RDF xmlns:dc="http://purl.org/dc/elements/1.1/" xmlns:cc="http://creativecommons.org/ns#" xmlns:rdf="http://www.w3.org/1999/02/22-rdf-syntax-ns#">
   <cc:Work>
    <dc:type rdf:resource="http://purl.org/dc/dcmitype/StillImage"/>
    <dc:date>2023-11-13T22:16:17.673352</dc:date>
    <dc:format>image/svg+xml</dc:format>
    <dc:creator>
     <cc:Agent>
      <dc:title>Matplotlib v3.5.2, https://matplotlib.org/</dc:title>
     </cc:Agent>
    </dc:creator>
   </cc:Work>
  </rdf:RDF>
 </metadata>
 <defs>
  <style type="text/css">*{stroke-linejoin: round; stroke-linecap: butt}</style>
 </defs>
 <g id="figure_1">
  <g id="patch_1">
   <path d="M 0 909.4125 
L 968.496875 909.4125 
L 968.496875 0 
L 0 0 
L 0 909.4125 
z
" style="fill: none"/>
  </g>
  <g id="axes_1">
   <g id="patch_2">
    <path d="M 124.296875 851.7 
L 961.296875 851.7 
L 961.296875 36.3 
L 124.296875 36.3 
z
" style="fill: #ffffff"/>
   </g>
   <g id="matplotlib.axis_1">
    <g id="xtick_1">
     <g id="line2d_1">
      <path d="M 155.095576 851.7 
L 155.095576 36.3 
" clip-path="url(#p805c837b3c)" style="fill: none; stroke: #b0b0b0; stroke-width: 0.8; stroke-linecap: square"/>
     </g>
     <g id="line2d_2">
      <defs>
       <path id="m1a2e9d543b" d="M 0 0 
L 0 3.5 
" style="stroke: #000000; stroke-width: 0.8"/>
      </defs>
      <g>
       <use xlink:href="#m1a2e9d543b" x="155.095576" y="851.7" style="stroke: #000000; stroke-width: 0.8"/>
      </g>
     </g>
     <g id="text_1">
      <!-- 0 -->
      <g transform="translate(148.733076 873.896875)scale(0.2 -0.2)">
       <defs>
        <path id="DejaVuSans-30" d="M 2034 4250 
Q 1547 4250 1301 3770 
Q 1056 3291 1056 2328 
Q 1056 1369 1301 889 
Q 1547 409 2034 409 
Q 2525 409 2770 889 
Q 3016 1369 3016 2328 
Q 3016 3291 2770 3770 
Q 2525 4250 2034 4250 
z
M 2034 4750 
Q 2819 4750 3233 4129 
Q 3647 3509 3647 2328 
Q 3647 1150 3233 529 
Q 2819 -91 2034 -91 
Q 1250 -91 836 529 
Q 422 1150 422 2328 
Q 422 3509 836 4129 
Q 1250 4750 2034 4750 
z
" transform="scale(0.015625)"/>
       </defs>
       <use xlink:href="#DejaVuSans-30"/>
      </g>
     </g>
    </g>
    <g id="xtick_2">
     <g id="line2d_3">
      <path d="M 300.030641 851.7 
L 300.030641 36.3 
" clip-path="url(#p805c837b3c)" style="fill: none; stroke: #b0b0b0; stroke-width: 0.8; stroke-linecap: square"/>
     </g>
     <g id="line2d_4">
      <g>
       <use xlink:href="#m1a2e9d543b" x="300.030641" y="851.7" style="stroke: #000000; stroke-width: 0.8"/>
      </g>
     </g>
     <g id="text_2">
      <!-- 20 -->
      <g transform="translate(287.305641 873.896875)scale(0.2 -0.2)">
       <defs>
        <path id="DejaVuSans-32" d="M 1228 531 
L 3431 531 
L 3431 0 
L 469 0 
L 469 531 
Q 828 903 1448 1529 
Q 2069 2156 2228 2338 
Q 2531 2678 2651 2914 
Q 2772 3150 2772 3378 
Q 2772 3750 2511 3984 
Q 2250 4219 1831 4219 
Q 1534 4219 1204 4116 
Q 875 4013 500 3803 
L 500 4441 
Q 881 4594 1212 4672 
Q 1544 4750 1819 4750 
Q 2544 4750 2975 4387 
Q 3406 4025 3406 3419 
Q 3406 3131 3298 2873 
Q 3191 2616 2906 2266 
Q 2828 2175 2409 1742 
Q 1991 1309 1228 531 
z
" transform="scale(0.015625)"/>
       </defs>
       <use xlink:href="#DejaVuSans-32"/>
       <use xlink:href="#DejaVuSans-30" x="63.623047"/>
      </g>
     </g>
    </g>
    <g id="xtick_3">
     <g id="line2d_5">
      <path d="M 444.965706 851.7 
L 444.965706 36.3 
" clip-path="url(#p805c837b3c)" style="fill: none; stroke: #b0b0b0; stroke-width: 0.8; stroke-linecap: square"/>
     </g>
     <g id="line2d_6">
      <g>
       <use xlink:href="#m1a2e9d543b" x="444.965706" y="851.7" style="stroke: #000000; stroke-width: 0.8"/>
      </g>
     </g>
     <g id="text_3">
      <!-- 40 -->
      <g transform="translate(432.240706 873.896875)scale(0.2 -0.2)">
       <defs>
        <path id="DejaVuSans-34" d="M 2419 4116 
L 825 1625 
L 2419 1625 
L 2419 4116 
z
M 2253 4666 
L 3047 4666 
L 3047 1625 
L 3713 1625 
L 3713 1100 
L 3047 1100 
L 3047 0 
L 2419 0 
L 2419 1100 
L 313 1100 
L 313 1709 
L 2253 4666 
z
" transform="scale(0.015625)"/>
       </defs>
       <use xlink:href="#DejaVuSans-34"/>
       <use xlink:href="#DejaVuSans-30" x="63.623047"/>
      </g>
     </g>
    </g>
    <g id="xtick_4">
     <g id="line2d_7">
      <path d="M 589.900771 851.7 
L 589.900771 36.3 
" clip-path="url(#p805c837b3c)" style="fill: none; stroke: #b0b0b0; stroke-width: 0.8; stroke-linecap: square"/>
     </g>
     <g id="line2d_8">
      <g>
       <use xlink:href="#m1a2e9d543b" x="589.900771" y="851.7" style="stroke: #000000; stroke-width: 0.8"/>
      </g>
     </g>
     <g id="text_4">
      <!-- 60 -->
      <g transform="translate(577.175771 873.896875)scale(0.2 -0.2)">
       <defs>
        <path id="DejaVuSans-36" d="M 2113 2584 
Q 1688 2584 1439 2293 
Q 1191 2003 1191 1497 
Q 1191 994 1439 701 
Q 1688 409 2113 409 
Q 2538 409 2786 701 
Q 3034 994 3034 1497 
Q 3034 2003 2786 2293 
Q 2538 2584 2113 2584 
z
M 3366 4563 
L 3366 3988 
Q 3128 4100 2886 4159 
Q 2644 4219 2406 4219 
Q 1781 4219 1451 3797 
Q 1122 3375 1075 2522 
Q 1259 2794 1537 2939 
Q 1816 3084 2150 3084 
Q 2853 3084 3261 2657 
Q 3669 2231 3669 1497 
Q 3669 778 3244 343 
Q 2819 -91 2113 -91 
Q 1303 -91 875 529 
Q 447 1150 447 2328 
Q 447 3434 972 4092 
Q 1497 4750 2381 4750 
Q 2619 4750 2861 4703 
Q 3103 4656 3366 4563 
z
" transform="scale(0.015625)"/>
       </defs>
       <use xlink:href="#DejaVuSans-36"/>
       <use xlink:href="#DejaVuSans-30" x="63.623047"/>
      </g>
     </g>
    </g>
    <g id="xtick_5">
     <g id="line2d_9">
      <path d="M 734.835836 851.7 
L 734.835836 36.3 
" clip-path="url(#p805c837b3c)" style="fill: none; stroke: #b0b0b0; stroke-width: 0.8; stroke-linecap: square"/>
     </g>
     <g id="line2d_10">
      <g>
       <use xlink:href="#m1a2e9d543b" x="734.835836" y="851.7" style="stroke: #000000; stroke-width: 0.8"/>
      </g>
     </g>
     <g id="text_5">
      <!-- 80 -->
      <g transform="translate(722.110836 873.896875)scale(0.2 -0.2)">
       <defs>
        <path id="DejaVuSans-38" d="M 2034 2216 
Q 1584 2216 1326 1975 
Q 1069 1734 1069 1313 
Q 1069 891 1326 650 
Q 1584 409 2034 409 
Q 2484 409 2743 651 
Q 3003 894 3003 1313 
Q 3003 1734 2745 1975 
Q 2488 2216 2034 2216 
z
M 1403 2484 
Q 997 2584 770 2862 
Q 544 3141 544 3541 
Q 544 4100 942 4425 
Q 1341 4750 2034 4750 
Q 2731 4750 3128 4425 
Q 3525 4100 3525 3541 
Q 3525 3141 3298 2862 
Q 3072 2584 2669 2484 
Q 3125 2378 3379 2068 
Q 3634 1759 3634 1313 
Q 3634 634 3220 271 
Q 2806 -91 2034 -91 
Q 1263 -91 848 271 
Q 434 634 434 1313 
Q 434 1759 690 2068 
Q 947 2378 1403 2484 
z
M 1172 3481 
Q 1172 3119 1398 2916 
Q 1625 2713 2034 2713 
Q 2441 2713 2670 2916 
Q 2900 3119 2900 3481 
Q 2900 3844 2670 4047 
Q 2441 4250 2034 4250 
Q 1625 4250 1398 4047 
Q 1172 3844 1172 3481 
z
" transform="scale(0.015625)"/>
       </defs>
       <use xlink:href="#DejaVuSans-38"/>
       <use xlink:href="#DejaVuSans-30" x="63.623047"/>
      </g>
     </g>
    </g>
    <g id="xtick_6">
     <g id="line2d_11">
      <path d="M 879.770901 851.7 
L 879.770901 36.3 
" clip-path="url(#p805c837b3c)" style="fill: none; stroke: #b0b0b0; stroke-width: 0.8; stroke-linecap: square"/>
     </g>
     <g id="line2d_12">
      <g>
       <use xlink:href="#m1a2e9d543b" x="879.770901" y="851.7" style="stroke: #000000; stroke-width: 0.8"/>
      </g>
     </g>
     <g id="text_6">
      <!-- 100 -->
      <g transform="translate(860.683401 873.896875)scale(0.2 -0.2)">
       <defs>
        <path id="DejaVuSans-31" d="M 794 531 
L 1825 531 
L 1825 4091 
L 703 3866 
L 703 4441 
L 1819 4666 
L 2450 4666 
L 2450 531 
L 3481 531 
L 3481 0 
L 794 0 
L 794 531 
z
" transform="scale(0.015625)"/>
       </defs>
       <use xlink:href="#DejaVuSans-31"/>
       <use xlink:href="#DejaVuSans-30" x="63.623047"/>
       <use xlink:href="#DejaVuSans-30" x="127.246094"/>
      </g>
     </g>
    </g>
    <g id="text_7">
     <!-- Número de dipolos (M) -->
     <g transform="translate(428.9125 898.053125)scale(0.2 -0.2)">
      <defs>
       <path id="DejaVuSans-4e" d="M 628 4666 
L 1478 4666 
L 3547 763 
L 3547 4666 
L 4159 4666 
L 4159 0 
L 3309 0 
L 1241 3903 
L 1241 0 
L 628 0 
L 628 4666 
z
" transform="scale(0.015625)"/>
       <path id="DejaVuSans-fa" d="M 544 1381 
L 544 3500 
L 1119 3500 
L 1119 1403 
Q 1119 906 1312 657 
Q 1506 409 1894 409 
Q 2359 409 2629 706 
Q 2900 1003 2900 1516 
L 2900 3500 
L 3475 3500 
L 3475 0 
L 2900 0 
L 2900 538 
Q 2691 219 2414 64 
Q 2138 -91 1772 -91 
Q 1169 -91 856 284 
Q 544 659 544 1381 
z
M 1991 3584 
L 1991 3584 
z
M 2418 5119 
L 3040 5119 
L 2022 3944 
L 1543 3944 
L 2418 5119 
z
" transform="scale(0.015625)"/>
       <path id="DejaVuSans-6d" d="M 3328 2828 
Q 3544 3216 3844 3400 
Q 4144 3584 4550 3584 
Q 5097 3584 5394 3201 
Q 5691 2819 5691 2113 
L 5691 0 
L 5113 0 
L 5113 2094 
Q 5113 2597 4934 2840 
Q 4756 3084 4391 3084 
Q 3944 3084 3684 2787 
Q 3425 2491 3425 1978 
L 3425 0 
L 2847 0 
L 2847 2094 
Q 2847 2600 2669 2842 
Q 2491 3084 2119 3084 
Q 1678 3084 1418 2786 
Q 1159 2488 1159 1978 
L 1159 0 
L 581 0 
L 581 3500 
L 1159 3500 
L 1159 2956 
Q 1356 3278 1631 3431 
Q 1906 3584 2284 3584 
Q 2666 3584 2933 3390 
Q 3200 3197 3328 2828 
z
" transform="scale(0.015625)"/>
       <path id="DejaVuSans-65" d="M 3597 1894 
L 3597 1613 
L 953 1613 
Q 991 1019 1311 708 
Q 1631 397 2203 397 
Q 2534 397 2845 478 
Q 3156 559 3463 722 
L 3463 178 
Q 3153 47 2828 -22 
Q 2503 -91 2169 -91 
Q 1331 -91 842 396 
Q 353 884 353 1716 
Q 353 2575 817 3079 
Q 1281 3584 2069 3584 
Q 2775 3584 3186 3129 
Q 3597 2675 3597 1894 
z
M 3022 2063 
Q 3016 2534 2758 2815 
Q 2500 3097 2075 3097 
Q 1594 3097 1305 2825 
Q 1016 2553 972 2059 
L 3022 2063 
z
" transform="scale(0.015625)"/>
       <path id="DejaVuSans-72" d="M 2631 2963 
Q 2534 3019 2420 3045 
Q 2306 3072 2169 3072 
Q 1681 3072 1420 2755 
Q 1159 2438 1159 1844 
L 1159 0 
L 581 0 
L 581 3500 
L 1159 3500 
L 1159 2956 
Q 1341 3275 1631 3429 
Q 1922 3584 2338 3584 
Q 2397 3584 2469 3576 
Q 2541 3569 2628 3553 
L 2631 2963 
z
" transform="scale(0.015625)"/>
       <path id="DejaVuSans-6f" d="M 1959 3097 
Q 1497 3097 1228 2736 
Q 959 2375 959 1747 
Q 959 1119 1226 758 
Q 1494 397 1959 397 
Q 2419 397 2687 759 
Q 2956 1122 2956 1747 
Q 2956 2369 2687 2733 
Q 2419 3097 1959 3097 
z
M 1959 3584 
Q 2709 3584 3137 3096 
Q 3566 2609 3566 1747 
Q 3566 888 3137 398 
Q 2709 -91 1959 -91 
Q 1206 -91 779 398 
Q 353 888 353 1747 
Q 353 2609 779 3096 
Q 1206 3584 1959 3584 
z
" transform="scale(0.015625)"/>
       <path id="DejaVuSans-20" transform="scale(0.015625)"/>
       <path id="DejaVuSans-64" d="M 2906 2969 
L 2906 4863 
L 3481 4863 
L 3481 0 
L 2906 0 
L 2906 525 
Q 2725 213 2448 61 
Q 2172 -91 1784 -91 
Q 1150 -91 751 415 
Q 353 922 353 1747 
Q 353 2572 751 3078 
Q 1150 3584 1784 3584 
Q 2172 3584 2448 3432 
Q 2725 3281 2906 2969 
z
M 947 1747 
Q 947 1113 1208 752 
Q 1469 391 1925 391 
Q 2381 391 2643 752 
Q 2906 1113 2906 1747 
Q 2906 2381 2643 2742 
Q 2381 3103 1925 3103 
Q 1469 3103 1208 2742 
Q 947 2381 947 1747 
z
" transform="scale(0.015625)"/>
       <path id="DejaVuSans-69" d="M 603 3500 
L 1178 3500 
L 1178 0 
L 603 0 
L 603 3500 
z
M 603 4863 
L 1178 4863 
L 1178 4134 
L 603 4134 
L 603 4863 
z
" transform="scale(0.015625)"/>
       <path id="DejaVuSans-70" d="M 1159 525 
L 1159 -1331 
L 581 -1331 
L 581 3500 
L 1159 3500 
L 1159 2969 
Q 1341 3281 1617 3432 
Q 1894 3584 2278 3584 
Q 2916 3584 3314 3078 
Q 3713 2572 3713 1747 
Q 3713 922 3314 415 
Q 2916 -91 2278 -91 
Q 1894 -91 1617 61 
Q 1341 213 1159 525 
z
M 3116 1747 
Q 3116 2381 2855 2742 
Q 2594 3103 2138 3103 
Q 1681 3103 1420 2742 
Q 1159 2381 1159 1747 
Q 1159 1113 1420 752 
Q 1681 391 2138 391 
Q 2594 391 2855 752 
Q 3116 1113 3116 1747 
z
" transform="scale(0.015625)"/>
       <path id="DejaVuSans-6c" d="M 603 4863 
L 1178 4863 
L 1178 0 
L 603 0 
L 603 4863 
z
" transform="scale(0.015625)"/>
       <path id="DejaVuSans-73" d="M 2834 3397 
L 2834 2853 
Q 2591 2978 2328 3040 
Q 2066 3103 1784 3103 
Q 1356 3103 1142 2972 
Q 928 2841 928 2578 
Q 928 2378 1081 2264 
Q 1234 2150 1697 2047 
L 1894 2003 
Q 2506 1872 2764 1633 
Q 3022 1394 3022 966 
Q 3022 478 2636 193 
Q 2250 -91 1575 -91 
Q 1294 -91 989 -36 
Q 684 19 347 128 
L 347 722 
Q 666 556 975 473 
Q 1284 391 1588 391 
Q 1994 391 2212 530 
Q 2431 669 2431 922 
Q 2431 1156 2273 1281 
Q 2116 1406 1581 1522 
L 1381 1569 
Q 847 1681 609 1914 
Q 372 2147 372 2553 
Q 372 3047 722 3315 
Q 1072 3584 1716 3584 
Q 2034 3584 2315 3537 
Q 2597 3491 2834 3397 
z
" transform="scale(0.015625)"/>
       <path id="DejaVuSans-28" d="M 1984 4856 
Q 1566 4138 1362 3434 
Q 1159 2731 1159 2009 
Q 1159 1288 1364 580 
Q 1569 -128 1984 -844 
L 1484 -844 
Q 1016 -109 783 600 
Q 550 1309 550 2009 
Q 550 2706 781 3412 
Q 1013 4119 1484 4856 
L 1984 4856 
z
" transform="scale(0.015625)"/>
       <path id="DejaVuSans-4d" d="M 628 4666 
L 1569 4666 
L 2759 1491 
L 3956 4666 
L 4897 4666 
L 4897 0 
L 4281 0 
L 4281 4097 
L 3078 897 
L 2444 897 
L 1241 4097 
L 1241 0 
L 628 0 
L 628 4666 
z
" transform="scale(0.015625)"/>
       <path id="DejaVuSans-29" d="M 513 4856 
L 1013 4856 
Q 1481 4119 1714 3412 
Q 1947 2706 1947 2009 
Q 1947 1309 1714 600 
Q 1481 -109 1013 -844 
L 513 -844 
Q 928 -128 1133 580 
Q 1338 1288 1338 2009 
Q 1338 2731 1133 3434 
Q 928 4138 513 4856 
z
" transform="scale(0.015625)"/>
      </defs>
      <use xlink:href="#DejaVuSans-4e"/>
      <use xlink:href="#DejaVuSans-fa" x="74.804688"/>
      <use xlink:href="#DejaVuSans-6d" x="138.183594"/>
      <use xlink:href="#DejaVuSans-65" x="235.595703"/>
      <use xlink:href="#DejaVuSans-72" x="297.119141"/>
      <use xlink:href="#DejaVuSans-6f" x="335.982422"/>
      <use xlink:href="#DejaVuSans-20" x="397.164062"/>
      <use xlink:href="#DejaVuSans-64" x="428.951172"/>
      <use xlink:href="#DejaVuSans-65" x="492.427734"/>
      <use xlink:href="#DejaVuSans-20" x="553.951172"/>
      <use xlink:href="#DejaVuSans-64" x="585.738281"/>
      <use xlink:href="#DejaVuSans-69" x="649.214844"/>
      <use xlink:href="#DejaVuSans-70" x="676.998047"/>
      <use xlink:href="#DejaVuSans-6f" x="740.474609"/>
      <use xlink:href="#DejaVuSans-6c" x="801.65625"/>
      <use xlink:href="#DejaVuSans-6f" x="829.439453"/>
      <use xlink:href="#DejaVuSans-73" x="890.621094"/>
      <use xlink:href="#DejaVuSans-20" x="942.720703"/>
      <use xlink:href="#DejaVuSans-28" x="974.507812"/>
      <use xlink:href="#DejaVuSans-4d" x="1013.521484"/>
      <use xlink:href="#DejaVuSans-29" x="1099.800781"/>
     </g>
    </g>
   </g>
   <g id="matplotlib.axis_2">
    <g id="ytick_1">
     <g id="line2d_13">
      <path d="M 124.296875 851.513184 
L 961.296875 851.513184 
" clip-path="url(#p805c837b3c)" style="fill: none; stroke: #b0b0b0; stroke-width: 0.8; stroke-linecap: square"/>
     </g>
     <g id="line2d_14">
      <defs>
       <path id="m039d980c0c" d="M 0 0 
L -3.5 0 
" style="stroke: #000000; stroke-width: 0.8"/>
      </defs>
      <g>
       <use xlink:href="#m039d980c0c" x="124.296875" y="851.513184" style="stroke: #000000; stroke-width: 0.8"/>
      </g>
     </g>
     <g id="text_8">
      <!-- −0.0003 -->
      <g transform="translate(30.55625 859.111622)scale(0.2 -0.2)">
       <defs>
        <path id="DejaVuSans-2212" d="M 678 2272 
L 4684 2272 
L 4684 1741 
L 678 1741 
L 678 2272 
z
" transform="scale(0.015625)"/>
        <path id="DejaVuSans-2e" d="M 684 794 
L 1344 794 
L 1344 0 
L 684 0 
L 684 794 
z
" transform="scale(0.015625)"/>
        <path id="DejaVuSans-33" d="M 2597 2516 
Q 3050 2419 3304 2112 
Q 3559 1806 3559 1356 
Q 3559 666 3084 287 
Q 2609 -91 1734 -91 
Q 1441 -91 1130 -33 
Q 819 25 488 141 
L 488 750 
Q 750 597 1062 519 
Q 1375 441 1716 441 
Q 2309 441 2620 675 
Q 2931 909 2931 1356 
Q 2931 1769 2642 2001 
Q 2353 2234 1838 2234 
L 1294 2234 
L 1294 2753 
L 1863 2753 
Q 2328 2753 2575 2939 
Q 2822 3125 2822 3475 
Q 2822 3834 2567 4026 
Q 2313 4219 1838 4219 
Q 1578 4219 1281 4162 
Q 984 4106 628 3988 
L 628 4550 
Q 988 4650 1302 4700 
Q 1616 4750 1894 4750 
Q 2613 4750 3031 4423 
Q 3450 4097 3450 3541 
Q 3450 3153 3228 2886 
Q 3006 2619 2597 2516 
z
" transform="scale(0.015625)"/>
       </defs>
       <use xlink:href="#DejaVuSans-2212"/>
       <use xlink:href="#DejaVuSans-30" x="83.789062"/>
       <use xlink:href="#DejaVuSans-2e" x="147.412109"/>
       <use xlink:href="#DejaVuSans-30" x="179.199219"/>
       <use xlink:href="#DejaVuSans-30" x="242.822266"/>
       <use xlink:href="#DejaVuSans-30" x="306.445312"/>
       <use xlink:href="#DejaVuSans-33" x="370.068359"/>
      </g>
     </g>
    </g>
    <g id="ytick_2">
     <g id="line2d_15">
      <path d="M 124.296875 715.689282 
L 961.296875 715.689282 
" clip-path="url(#p805c837b3c)" style="fill: none; stroke: #b0b0b0; stroke-width: 0.8; stroke-linecap: square"/>
     </g>
     <g id="line2d_16">
      <g>
       <use xlink:href="#m039d980c0c" x="124.296875" y="715.689282" style="stroke: #000000; stroke-width: 0.8"/>
      </g>
     </g>
     <g id="text_9">
      <!-- −0.0002 -->
      <g transform="translate(30.55625 723.28772)scale(0.2 -0.2)">
       <use xlink:href="#DejaVuSans-2212"/>
       <use xlink:href="#DejaVuSans-30" x="83.789062"/>
       <use xlink:href="#DejaVuSans-2e" x="147.412109"/>
       <use xlink:href="#DejaVuSans-30" x="179.199219"/>
       <use xlink:href="#DejaVuSans-30" x="242.822266"/>
       <use xlink:href="#DejaVuSans-30" x="306.445312"/>
       <use xlink:href="#DejaVuSans-32" x="370.068359"/>
      </g>
     </g>
    </g>
    <g id="ytick_3">
     <g id="line2d_17">
      <path d="M 124.296875 579.86538 
L 961.296875 579.86538 
" clip-path="url(#p805c837b3c)" style="fill: none; stroke: #b0b0b0; stroke-width: 0.8; stroke-linecap: square"/>
     </g>
     <g id="line2d_18">
      <g>
       <use xlink:href="#m039d980c0c" x="124.296875" y="579.86538" style="stroke: #000000; stroke-width: 0.8"/>
      </g>
     </g>
     <g id="text_10">
      <!-- −0.0001 -->
      <g transform="translate(30.55625 587.463818)scale(0.2 -0.2)">
       <use xlink:href="#DejaVuSans-2212"/>
       <use xlink:href="#DejaVuSans-30" x="83.789062"/>
       <use xlink:href="#DejaVuSans-2e" x="147.412109"/>
       <use xlink:href="#DejaVuSans-30" x="179.199219"/>
       <use xlink:href="#DejaVuSans-30" x="242.822266"/>
       <use xlink:href="#DejaVuSans-30" x="306.445312"/>
       <use xlink:href="#DejaVuSans-31" x="370.068359"/>
      </g>
     </g>
    </g>
    <g id="ytick_4">
     <g id="line2d_19">
      <path d="M 124.296875 444.041478 
L 961.296875 444.041478 
" clip-path="url(#p805c837b3c)" style="fill: none; stroke: #b0b0b0; stroke-width: 0.8; stroke-linecap: square"/>
     </g>
     <g id="line2d_20">
      <g>
       <use xlink:href="#m039d980c0c" x="124.296875" y="444.041478" style="stroke: #000000; stroke-width: 0.8"/>
      </g>
     </g>
     <g id="text_11">
      <!-- 0.0000 -->
      <g transform="translate(47.315625 451.639916)scale(0.2 -0.2)">
       <use xlink:href="#DejaVuSans-30"/>
       <use xlink:href="#DejaVuSans-2e" x="63.623047"/>
       <use xlink:href="#DejaVuSans-30" x="95.410156"/>
       <use xlink:href="#DejaVuSans-30" x="159.033203"/>
       <use xlink:href="#DejaVuSans-30" x="222.65625"/>
       <use xlink:href="#DejaVuSans-30" x="286.279297"/>
      </g>
     </g>
    </g>
    <g id="ytick_5">
     <g id="line2d_21">
      <path d="M 124.296875 308.217576 
L 961.296875 308.217576 
" clip-path="url(#p805c837b3c)" style="fill: none; stroke: #b0b0b0; stroke-width: 0.8; stroke-linecap: square"/>
     </g>
     <g id="line2d_22">
      <g>
       <use xlink:href="#m039d980c0c" x="124.296875" y="308.217576" style="stroke: #000000; stroke-width: 0.8"/>
      </g>
     </g>
     <g id="text_12">
      <!-- 0.0001 -->
      <g transform="translate(47.315625 315.816014)scale(0.2 -0.2)">
       <use xlink:href="#DejaVuSans-30"/>
       <use xlink:href="#DejaVuSans-2e" x="63.623047"/>
       <use xlink:href="#DejaVuSans-30" x="95.410156"/>
       <use xlink:href="#DejaVuSans-30" x="159.033203"/>
       <use xlink:href="#DejaVuSans-30" x="222.65625"/>
       <use xlink:href="#DejaVuSans-31" x="286.279297"/>
      </g>
     </g>
    </g>
    <g id="ytick_6">
     <g id="line2d_23">
      <path d="M 124.296875 172.393674 
L 961.296875 172.393674 
" clip-path="url(#p805c837b3c)" style="fill: none; stroke: #b0b0b0; stroke-width: 0.8; stroke-linecap: square"/>
     </g>
     <g id="line2d_24">
      <g>
       <use xlink:href="#m039d980c0c" x="124.296875" y="172.393674" style="stroke: #000000; stroke-width: 0.8"/>
      </g>
     </g>
     <g id="text_13">
      <!-- 0.0002 -->
      <g transform="translate(47.315625 179.992112)scale(0.2 -0.2)">
       <use xlink:href="#DejaVuSans-30"/>
       <use xlink:href="#DejaVuSans-2e" x="63.623047"/>
       <use xlink:href="#DejaVuSans-30" x="95.410156"/>
       <use xlink:href="#DejaVuSans-30" x="159.033203"/>
       <use xlink:href="#DejaVuSans-30" x="222.65625"/>
       <use xlink:href="#DejaVuSans-32" x="286.279297"/>
      </g>
     </g>
    </g>
    <g id="ytick_7">
     <g id="line2d_25">
      <path d="M 124.296875 36.569772 
L 961.296875 36.569772 
" clip-path="url(#p805c837b3c)" style="fill: none; stroke: #b0b0b0; stroke-width: 0.8; stroke-linecap: square"/>
     </g>
     <g id="line2d_26">
      <g>
       <use xlink:href="#m039d980c0c" x="124.296875" y="36.569772" style="stroke: #000000; stroke-width: 0.8"/>
      </g>
     </g>
     <g id="text_14">
      <!-- 0.0003 -->
      <g transform="translate(47.315625 44.16821)scale(0.2 -0.2)">
       <use xlink:href="#DejaVuSans-30"/>
       <use xlink:href="#DejaVuSans-2e" x="63.623047"/>
       <use xlink:href="#DejaVuSans-30" x="95.410156"/>
       <use xlink:href="#DejaVuSans-30" x="159.033203"/>
       <use xlink:href="#DejaVuSans-30" x="222.65625"/>
       <use xlink:href="#DejaVuSans-33" x="286.279297"/>
      </g>
     </g>
    </g>
    <g id="text_15">
     <!-- $\lambda$ -->
     <g transform="translate(22.396875 450)rotate(-90)scale(0.2 -0.2)">
      <defs>
       <path id="DejaVuSans-Oblique-3bb" d="M 2350 4316 
L 3125 0 
L 2516 0 
L 2038 2588 
L 328 0 
L -281 0 
L 1903 3356 
L 1794 3975 
Q 1725 4369 1391 4369 
L 1091 4369 
L 1184 4863 
L 1550 4856 
Q 2253 4847 2350 4316 
z
" transform="scale(0.015625)"/>
      </defs>
      <use xlink:href="#DejaVuSans-Oblique-3bb" transform="translate(0 0.015625)"/>
     </g>
    </g>
   </g>
   <g id="line2d_27">
    <path d="M 162.34233 181.92533 
L 169.589083 166.718849 
L 176.835836 152.505112 
L 184.082589 139.334999 
L 191.329343 127.255656 
L 198.576096 116.310324 
L 205.822849 106.538185 
L 213.069602 97.974219 
L 220.316356 90.649085 
L 227.563109 84.589004 
L 234.809862 79.815669 
L 242.056615 76.346168 
L 249.303369 74.192922 
L 256.550122 73.363636 
L 263.796875 73.861282 
L 271.043628 75.684076 
L 278.290381 78.825494 
L 285.537135 83.274291 
L 292.783888 89.014541 
L 300.030641 96.025694 
L 307.277394 104.282655 
L 314.524148 113.755863 
L 321.770901 124.411408 
L 329.017654 136.211146 
L 336.264407 149.112837 
L 343.511161 163.070296 
L 350.757914 178.033558 
L 358.004667 193.94906 
L 365.25142 210.759828 
L 372.498174 228.405683 
L 379.744927 246.823459 
L 386.99168 265.947224 
L 394.238433 285.70852 
L 401.485187 306.036608 
L 408.73194 326.858716 
L 415.978693 348.100309 
L 423.225446 369.685346 
L 430.4722 391.536559 
L 437.718953 413.575726 
L 444.965706 435.723952 
L 452.212459 457.901953 
L 459.459213 480.030337 
L 466.705966 502.02989 
L 473.952719 523.82186 
L 481.199472 545.328237 
L 488.446226 566.472033 
L 495.692979 587.17756 
L 502.939732 607.370697 
L 510.186485 626.979157 
L 517.433239 645.932748 
L 524.679992 664.163621 
L 531.926745 681.606514 
L 539.173498 698.198985 
L 546.420252 713.881638 
L 553.667005 728.598334 
L 560.913758 742.29639 
L 568.160511 754.926771 
L 575.407265 766.444264 
L 582.654018 776.807638 
L 589.900771 785.979795 
L 597.147524 793.927902 
L 604.394278 800.623506 
L 611.641031 806.04264 
L 618.887784 810.165903 
L 626.134537 812.978536 
L 633.381291 814.470469 
L 640.628044 814.636364 
L 647.874797 813.475624 
L 655.12155 810.992407 
L 662.368304 807.1956 
L 669.615057 802.098795 
L 676.86181 795.720239 
L 684.108563 788.082764 
L 691.355317 779.21371 
L 698.60207 769.144826 
L 705.848823 757.912157 
L 713.095576 745.555913 
L 720.34233 732.120325 
L 727.589083 717.653489 
L 734.835836 702.207194 
L 742.082589 685.836732 
L 749.329343 668.600706 
L 756.576096 650.560817 
L 763.822849 631.781641 
L 771.069602 612.330405 
L 778.316356 592.276738 
L 785.563109 571.692427 
L 792.809862 550.651159 
L 800.056615 529.228255 
L 807.303369 507.500406 
L 814.550122 485.54539 
L 821.796875 463.4418 
L 829.043628 441.268763 
L 836.290381 419.105651 
L 843.537135 397.031803 
L 850.783888 375.126237 
L 858.030641 353.46737 
L 865.277394 332.132735 
L 872.524148 311.198704 
L 879.770901 290.740216 
L 887.017654 270.830506 
L 894.264407 251.540847 
L 901.511161 232.94029 
L 908.757914 215.09542 
L 916.004667 198.070118 
L 923.25142 181.92533 
" clip-path="url(#p805c837b3c)" style="fill: none; stroke: #1f77b4; stroke-width: 3; stroke-linecap: square"/>
   </g>
   <g id="line2d_28">
    <path d="M 162.34233 291.600479 
L 169.589083 282.756723 
L 176.835836 274.490325 
L 184.082589 266.830877 
L 191.329343 259.805796 
L 198.576096 253.440231 
L 205.822849 247.756969 
L 213.069602 242.776355 
L 220.316356 238.516218 
L 227.563109 234.991807 
L 234.809862 232.215741 
L 242.056615 230.197955 
L 249.303369 228.945674 
L 256.550122 228.46338 
L 263.796875 228.7528 
L 271.043628 229.812897 
L 278.290381 231.639877 
L 285.537135 234.227199 
L 292.783888 237.565602 
L 300.030641 241.643136 
L 307.277394 246.445202 
L 314.524148 251.954613 
L 321.770901 258.151644 
L 329.017654 265.014113 
L 336.264407 272.517453 
L 343.511161 280.634804 
L 350.757914 289.33711 
L 358.004667 298.593216 
L 365.25142 308.36999 
L 372.498174 318.632432 
L 379.744927 329.343806 
L 386.99168 340.465768 
L 394.238433 351.958505 
L 401.485187 363.780874 
L 408.73194 375.890556 
L 415.978693 388.2442 
L 423.225446 400.797584 
L 430.4722 413.50577 
L 437.718953 426.323265 
L 444.965706 439.204188 
L 452.212459 452.102426 
L 459.459213 464.971809 
L 466.705966 477.766266 
L 473.952719 490.439997 
L 481.199472 502.947634 
L 488.446226 515.244402 
L 495.692979 527.286282 
L 502.939732 539.030167 
L 510.186485 550.434018 
L 517.433239 561.45701 
L 524.679992 572.059686 
L 531.926745 582.204089 
L 539.173498 591.853907 
L 546.420252 600.974594 
L 553.667005 609.533501 
L 560.913758 617.49999 
L 568.160511 624.845542 
L 575.407265 631.543863 
L 582.654018 637.570974 
L 589.900771 642.905299 
L 597.147524 647.527744 
L 604.394278 651.421761 
L 611.641031 654.57341 
L 618.887784 656.971409 
L 626.134537 658.607174 
L 633.381291 659.47485 
L 640.628044 659.571331 
L 647.874797 658.89627 
L 655.12155 657.452085 
L 662.368304 655.243946 
L 669.615057 652.279756 
L 676.86181 648.570128 
L 684.108563 644.12834 
L 691.355317 638.970293 
L 698.60207 633.114451 
L 705.848823 626.581777 
L 713.095576 619.395657 
L 720.34233 611.581813 
L 727.589083 603.168219 
L 734.835836 594.184993 
L 742.082589 584.664292 
L 749.329343 574.640197 
L 756.576096 564.148593 
L 763.822849 553.227037 
L 771.069602 541.914625 
L 778.316356 530.251852 
L 785.563109 518.280468 
L 792.809862 506.043329 
L 800.056615 493.584238 
L 807.303369 480.947798 
L 814.550122 468.179242 
L 821.796875 455.32428 
L 829.043628 442.428928 
L 836.290381 429.539348 
L 843.537135 416.701683 
L 850.783888 403.961886 
L 858.030641 391.365565 
L 865.277394 378.957809 
L 872.524148 366.783036 
L 879.770901 354.884828 
L 887.017654 343.305778 
L 894.264407 332.087335 
L 901.511161 321.26966 
L 908.757914 310.891475 
L 916.004667 300.989933 
L 923.25142 291.600479 
" clip-path="url(#p805c837b3c)" style="fill: none; stroke: #ff7f0e; stroke-width: 3; stroke-linecap: square"/>
   </g>
   <g id="line2d_29">
    <path d="M 162.34233 347.702827 
L 169.589083 342.113809 
L 176.835836 336.889666 
L 184.082589 332.049099 
L 191.329343 327.609435 
L 198.576096 323.586567 
L 205.822849 319.994897 
L 213.069602 316.847282 
L 220.316356 314.154988 
L 227.563109 311.927655 
L 234.809862 310.173255 
L 242.056615 308.898068 
L 249.303369 308.10666 
L 256.550122 307.801863 
L 263.796875 307.984768 
L 271.043628 308.654721 
L 278.290381 309.809324 
L 285.537135 311.444443 
L 292.783888 313.554225 
L 300.030641 316.131117 
L 307.277394 319.165896 
L 314.524148 322.647696 
L 321.770901 326.564055 
L 329.017654 330.900952 
L 336.264407 335.642863 
L 343.511161 340.772813 
L 350.757914 346.272438 
L 358.004667 352.122051 
L 365.25142 358.300712 
L 372.498174 364.786302 
L 379.744927 371.555605 
L 386.99168 378.584389 
L 394.238433 385.847492 
L 401.485187 393.318914 
L 408.73194 400.971911 
L 415.978693 408.779085 
L 423.225446 416.712489 
L 430.4722 424.743724 
L 437.718953 432.84404 
L 444.965706 440.984439 
L 452.212459 449.135783 
L 459.459213 457.26889 
L 466.705966 465.354646 
L 473.952719 473.364106 
L 481.199472 481.2686 
L 488.446226 489.039829 
L 495.692979 496.649977 
L 502.939732 504.071799 
L 510.186485 511.278729 
L 517.433239 518.244967 
L 524.679992 524.945575 
L 531.926745 531.356568 
L 539.173498 537.454995 
L 546.420252 543.219027 
L 553.667005 548.628028 
L 560.913758 553.662637 
L 568.160511 558.30483 
L 575.407265 562.537991 
L 582.654018 566.346964 
L 589.900771 569.718116 
L 597.147524 572.639378 
L 604.394278 575.100292 
L 611.641031 577.092051 
L 618.887784 578.607522 
L 626.134537 579.641283 
L 633.381291 580.189631 
L 640.628044 580.250604 
L 647.874797 579.823983 
L 655.12155 578.911297 
L 662.368304 577.515812 
L 669.615057 575.642523 
L 676.86181 573.298136 
L 684.108563 570.491045 
L 691.355317 567.231296 
L 698.60207 563.530561 
L 705.848823 559.402085 
L 713.095576 554.860648 
L 720.34233 549.922507 
L 727.589083 544.60534 
L 734.835836 538.92818 
L 742.082589 532.91135 
L 749.329343 526.57639 
L 756.576096 519.945975 
L 763.822849 513.043843 
L 771.069602 505.8947 
L 778.316356 498.524138 
L 785.563109 490.958542 
L 792.809862 483.224996 
L 800.056615 475.351183 
L 807.303369 467.365289 
L 814.550122 459.295902 
L 821.796875 451.171908 
L 829.043628 443.022389 
L 836.290381 434.876518 
L 843.537135 426.763456 
L 850.783888 418.712244 
L 858.030641 410.751704 
L 865.277394 402.910333 
L 872.524148 395.216201 
L 879.770901 387.69685 
L 887.017654 380.379199 
L 894.264407 373.289442 
L 901.511161 366.452959 
L 908.757914 359.894223 
L 916.004667 353.636712 
L 923.25142 347.702827 
" clip-path="url(#p805c837b3c)" style="fill: none; stroke: #2ca02c; stroke-width: 3; stroke-linecap: square"/>
   </g>
   <g id="line2d_30">
    <path d="M 162.34233 379.330156 
L 169.589083 375.575975 
L 176.835836 372.066883 
L 184.082589 368.815441 
L 191.329343 365.833289 
L 198.576096 363.131102 
L 205.822849 360.718553 
L 213.069602 358.604278 
L 220.316356 356.795847 
L 227.563109 355.299732 
L 234.809862 354.121289 
L 242.056615 353.264738 
L 249.303369 352.733144 
L 256.550122 352.528409 
L 263.796875 352.651268 
L 271.043628 353.10128 
L 278.290381 353.876835 
L 285.537135 354.975155 
L 292.783888 356.39231 
L 300.030641 358.123226 
L 307.277394 360.161707 
L 314.524148 362.500456 
L 321.770901 365.1311 
L 329.017654 368.044224 
L 336.264407 371.229397 
L 343.511161 374.675219 
L 350.757914 378.369354 
L 358.004667 382.298579 
L 365.25142 386.448827 
L 372.498174 390.805242 
L 379.744927 395.352228 
L 386.99168 400.07351 
L 394.238433 404.952185 
L 401.485187 409.97079 
L 408.73194 415.111359 
L 415.978693 420.35549 
L 423.225446 425.684412 
L 430.4722 431.079046 
L 437.718953 436.520083 
L 444.965706 441.988045 
L 452.212459 447.463357 
L 459.459213 452.92642 
L 466.705966 458.357677 
L 473.952719 463.737685 
L 481.199472 469.047187 
L 488.446226 474.267174 
L 495.692979 479.378962 
L 502.939732 484.36425 
L 510.186485 489.205193 
L 517.433239 493.884462 
L 524.679992 498.385306 
L 531.926745 502.691613 
L 539.173498 506.787968 
L 546.420252 510.659707 
L 553.667005 514.292969 
L 560.913758 517.67475 
L 568.160511 520.792943 
L 575.407265 523.636385 
L 582.654018 526.194898 
L 589.900771 528.459323 
L 597.147524 530.421555 
L 604.394278 532.074568 
L 611.641031 533.412445 
L 618.887784 534.430398 
L 626.134537 535.124782 
L 633.381291 535.493111 
L 640.628044 535.534067 
L 647.874797 535.247503 
L 655.12155 534.634445 
L 662.368304 533.697088 
L 669.615057 532.438788 
L 676.86181 530.864047 
L 684.108563 528.978505 
L 691.355317 526.78891 
L 698.60207 524.303101 
L 705.848823 521.529976 
L 713.095576 518.479462 
L 720.34233 515.16248 
L 727.589083 511.590902 
L 734.835836 507.777516 
L 742.082589 503.735971 
L 749.329343 499.480735 
L 756.576096 495.027041 
L 763.822849 490.390832 
L 771.069602 485.588704 
L 778.316356 480.637848 
L 785.563109 475.555987 
L 792.809862 470.361312 
L 800.056615 465.072418 
L 807.303369 459.708239 
L 814.550122 454.287978 
L 821.796875 448.831036 
L 829.043628 443.356949 
L 836.290381 437.885313 
L 843.537135 432.435714 
L 850.783888 427.027661 
L 858.030641 421.680512 
L 865.277394 416.41341 
L 872.524148 411.24521 
L 879.770901 406.194412 
L 887.017654 401.279096 
L 894.264407 396.516858 
L 901.511161 391.924747 
L 908.757914 387.519199 
L 916.004667 383.315987 
L 923.25142 379.330156 
" clip-path="url(#p805c837b3c)" style="fill: none; stroke: #d62728; stroke-width: 3; stroke-linecap: square"/>
   </g>
   <g id="line2d_31">
    <path d="M 162.34233 398.498422 
L 169.589083 395.856274 
L 176.835836 393.386617 
L 184.082589 391.098291 
L 191.329343 388.999487 
L 198.576096 387.09772 
L 205.822849 385.399797 
L 213.069602 383.911796 
L 220.316356 382.639043 
L 227.563109 381.586095 
L 234.809862 380.756722 
L 242.056615 380.153891 
L 249.303369 379.779761 
L 256.550122 379.635672 
L 263.796875 379.722138 
L 271.043628 380.038851 
L 278.290381 380.584677 
L 285.537135 381.357662 
L 292.783888 382.355039 
L 300.030641 383.573237 
L 307.277394 385.007895 
L 314.524148 386.653879 
L 321.770901 388.505295 
L 329.017654 390.555517 
L 336.264407 392.797204 
L 343.511161 395.222332 
L 350.757914 397.822221 
L 358.004667 400.587562 
L 365.25142 403.508457 
L 372.498174 406.57445 
L 379.744927 409.774565 
L 386.99168 413.097346 
L 394.238433 416.5309 
L 401.485187 420.062934 
L 408.73194 423.680805 
L 415.978693 427.371563 
L 423.225446 431.121994 
L 430.4722 434.918673 
L 437.718953 438.74801 
L 444.965706 442.596296 
L 452.212459 446.449756 
L 459.459213 450.294594 
L 466.705966 454.117048 
L 473.952719 457.903434 
L 481.199472 461.640198 
L 488.446226 465.313963 
L 495.692979 468.911578 
L 502.939732 472.420164 
L 510.186485 475.827162 
L 517.433239 479.120376 
L 524.679992 482.288016 
L 531.926745 485.318744 
L 539.173498 488.201709 
L 546.420252 490.926593 
L 553.667005 493.48364 
L 560.913758 495.863697 
L 568.160511 498.058244 
L 575.407265 500.059424 
L 582.654018 501.860075 
L 589.900771 503.453751 
L 597.147524 504.834746 
L 604.394278 505.998117 
L 611.641031 506.939699 
L 618.887784 507.656122 
L 626.134537 508.144821 
L 633.381291 508.404046 
L 640.628044 508.432871 
L 647.874797 508.231191 
L 655.12155 507.799728 
L 662.368304 507.140027 
L 669.615057 506.25445 
L 676.86181 505.146167 
L 684.108563 503.819145 
L 691.355317 502.278134 
L 698.60207 500.528651 
L 705.848823 498.576959 
L 713.095576 496.430043 
L 720.34233 494.095591 
L 727.589083 491.581957 
L 734.835836 488.898141 
L 742.082589 486.05375 
L 749.329343 483.058966 
L 756.576096 479.924509 
L 763.822849 476.661601 
L 771.069602 473.28192 
L 778.316356 469.797567 
L 785.563109 466.221013 
L 792.809862 462.565063 
L 800.056615 458.842803 
L 807.303369 455.067558 
L 814.550122 451.252842 
L 821.796875 447.412312 
L 829.043628 443.559715 
L 836.290381 439.708842 
L 843.537135 435.87348 
L 850.783888 432.067356 
L 858.030641 428.304097 
L 865.277394 424.597174 
L 872.524148 420.959856 
L 879.770901 417.405164 
L 887.017654 413.945823 
L 894.264407 410.594217 
L 901.511161 407.362344 
L 908.757914 404.261772 
L 916.004667 401.303602 
L 923.25142 398.498422 
" clip-path="url(#p805c837b3c)" style="fill: none; stroke: #9467bd; stroke-width: 3; stroke-linecap: square"/>
   </g>
   <g id="line2d_32">
    <path d="M 162.34233 410.7855 
L 169.589083 408.856178 
L 176.835836 407.052811 
L 184.082589 405.381853 
L 191.329343 403.849287 
L 198.576096 402.460598 
L 205.822849 401.220758 
L 213.069602 400.134205 
L 220.316356 399.204829 
L 227.563109 398.435957 
L 234.809862 397.83034 
L 242.056615 397.390147 
L 249.303369 397.116954 
L 256.550122 397.011738 
L 263.796875 397.074877 
L 271.043628 397.306144 
L 278.290381 397.704712 
L 285.537135 398.269152 
L 292.783888 398.997446 
L 300.030641 399.886986 
L 307.277394 400.934588 
L 314.524148 402.136501 
L 321.770901 403.488423 
L 329.017654 404.985514 
L 336.264407 406.622416 
L 343.511161 408.393268 
L 350.757914 410.291732 
L 358.004667 412.31101 
L 365.25142 414.443876 
L 372.498174 416.682693 
L 379.744927 419.019448 
L 386.99168 421.445775 
L 394.238433 423.952989 
L 401.485187 426.532115 
L 408.73194 429.173919 
L 415.978693 431.868945 
L 423.225446 434.607546 
L 430.4722 437.379918 
L 437.718953 440.176137 
L 444.965706 442.986192 
L 452.212459 445.800026 
L 459.459213 448.607564 
L 466.705966 451.398756 
L 473.952719 454.163612 
L 481.199472 456.892233 
L 488.446226 459.574851 
L 495.692979 462.201864 
L 502.939732 464.763868 
L 510.186485 467.251691 
L 517.433239 469.656427 
L 524.679992 471.969468 
L 531.926745 474.182535 
L 539.173498 476.287704 
L 546.420252 478.27744 
L 553.667005 480.14462 
L 560.913758 481.882561 
L 568.160511 483.48504 
L 575.407265 484.946322 
L 582.654018 486.261174 
L 589.900771 487.424892 
L 597.147524 488.433307 
L 604.394278 489.282812 
L 611.641031 489.970364 
L 618.887784 490.493503 
L 626.134537 490.850356 
L 633.381291 491.039645 
L 640.628044 491.060693 
L 647.874797 490.913424 
L 655.12155 490.598366 
L 662.368304 490.116646 
L 669.615057 489.469989 
L 676.86181 488.66071 
L 684.108563 487.691706 
L 691.355317 486.566445 
L 698.60207 485.288955 
L 705.848823 483.863811 
L 713.095576 482.296113 
L 720.34233 480.591473 
L 727.589083 478.755994 
L 734.835836 476.796245 
L 742.082589 474.719244 
L 749.329343 472.532423 
L 756.576096 470.243613 
L 763.822849 467.861006 
L 771.069602 465.393131 
L 778.316356 462.848822 
L 785.563109 460.237188 
L 792.809862 457.567578 
L 800.056615 454.849548 
L 807.303369 452.092828 
L 814.550122 449.307286 
L 821.796875 446.502893 
L 829.043628 443.68969 
L 836.290381 440.877746 
L 843.537135 438.077127 
L 850.783888 435.297859 
L 858.030641 432.549891 
L 865.277394 429.84306 
L 872.524148 427.187055 
L 879.770901 424.591385 
L 887.017654 422.065341 
L 894.264407 419.617967 
L 901.511161 417.258021 
L 908.757914 414.993954 
L 916.004667 412.83387 
L 923.25142 410.7855 
" clip-path="url(#p805c837b3c)" style="fill: none; stroke: #8c564b; stroke-width: 3; stroke-linecap: square"/>
   </g>
   <g id="patch_3">
    <path d="M 124.296875 851.7 
L 124.296875 36.3 
" style="fill: none; stroke: #000000; stroke-width: 0.8; stroke-linejoin: miter; stroke-linecap: square"/>
   </g>
   <g id="patch_4">
    <path d="M 961.296875 851.7 
L 961.296875 36.3 
" style="fill: none; stroke: #000000; stroke-width: 0.8; stroke-linejoin: miter; stroke-linecap: square"/>
   </g>
   <g id="patch_5">
    <path d="M 124.296875 851.7 
L 961.296875 851.7 
" style="fill: none; stroke: #000000; stroke-width: 0.8; stroke-linejoin: miter; stroke-linecap: square"/>
   </g>
   <g id="patch_6">
    <path d="M 124.296875 36.3 
L 961.296875 36.3 
" style="fill: none; stroke: #000000; stroke-width: 0.8; stroke-linejoin: miter; stroke-linecap: square"/>
   </g>
   <g id="text_16">
    <!-- Factor de acople $\lambda$ para diferentes distancias -->
    <g transform="translate(204.096875 30)scale(0.3 -0.3)">
     <defs>
      <path id="DejaVuSans-46" d="M 628 4666 
L 3309 4666 
L 3309 4134 
L 1259 4134 
L 1259 2759 
L 3109 2759 
L 3109 2228 
L 1259 2228 
L 1259 0 
L 628 0 
L 628 4666 
z
" transform="scale(0.015625)"/>
      <path id="DejaVuSans-61" d="M 2194 1759 
Q 1497 1759 1228 1600 
Q 959 1441 959 1056 
Q 959 750 1161 570 
Q 1363 391 1709 391 
Q 2188 391 2477 730 
Q 2766 1069 2766 1631 
L 2766 1759 
L 2194 1759 
z
M 3341 1997 
L 3341 0 
L 2766 0 
L 2766 531 
Q 2569 213 2275 61 
Q 1981 -91 1556 -91 
Q 1019 -91 701 211 
Q 384 513 384 1019 
Q 384 1609 779 1909 
Q 1175 2209 1959 2209 
L 2766 2209 
L 2766 2266 
Q 2766 2663 2505 2880 
Q 2244 3097 1772 3097 
Q 1472 3097 1187 3025 
Q 903 2953 641 2809 
L 641 3341 
Q 956 3463 1253 3523 
Q 1550 3584 1831 3584 
Q 2591 3584 2966 3190 
Q 3341 2797 3341 1997 
z
" transform="scale(0.015625)"/>
      <path id="DejaVuSans-63" d="M 3122 3366 
L 3122 2828 
Q 2878 2963 2633 3030 
Q 2388 3097 2138 3097 
Q 1578 3097 1268 2742 
Q 959 2388 959 1747 
Q 959 1106 1268 751 
Q 1578 397 2138 397 
Q 2388 397 2633 464 
Q 2878 531 3122 666 
L 3122 134 
Q 2881 22 2623 -34 
Q 2366 -91 2075 -91 
Q 1284 -91 818 406 
Q 353 903 353 1747 
Q 353 2603 823 3093 
Q 1294 3584 2113 3584 
Q 2378 3584 2631 3529 
Q 2884 3475 3122 3366 
z
" transform="scale(0.015625)"/>
      <path id="DejaVuSans-74" d="M 1172 4494 
L 1172 3500 
L 2356 3500 
L 2356 3053 
L 1172 3053 
L 1172 1153 
Q 1172 725 1289 603 
Q 1406 481 1766 481 
L 2356 481 
L 2356 0 
L 1766 0 
Q 1100 0 847 248 
Q 594 497 594 1153 
L 594 3053 
L 172 3053 
L 172 3500 
L 594 3500 
L 594 4494 
L 1172 4494 
z
" transform="scale(0.015625)"/>
      <path id="DejaVuSans-66" d="M 2375 4863 
L 2375 4384 
L 1825 4384 
Q 1516 4384 1395 4259 
Q 1275 4134 1275 3809 
L 1275 3500 
L 2222 3500 
L 2222 3053 
L 1275 3053 
L 1275 0 
L 697 0 
L 697 3053 
L 147 3053 
L 147 3500 
L 697 3500 
L 697 3744 
Q 697 4328 969 4595 
Q 1241 4863 1831 4863 
L 2375 4863 
z
" transform="scale(0.015625)"/>
      <path id="DejaVuSans-6e" d="M 3513 2113 
L 3513 0 
L 2938 0 
L 2938 2094 
Q 2938 2591 2744 2837 
Q 2550 3084 2163 3084 
Q 1697 3084 1428 2787 
Q 1159 2491 1159 1978 
L 1159 0 
L 581 0 
L 581 3500 
L 1159 3500 
L 1159 2956 
Q 1366 3272 1645 3428 
Q 1925 3584 2291 3584 
Q 2894 3584 3203 3211 
Q 3513 2838 3513 2113 
z
" transform="scale(0.015625)"/>
     </defs>
     <use xlink:href="#DejaVuSans-46" transform="translate(0 0.015625)"/>
     <use xlink:href="#DejaVuSans-61" transform="translate(57.519531 0.015625)"/>
     <use xlink:href="#DejaVuSans-63" transform="translate(118.798828 0.015625)"/>
     <use xlink:href="#DejaVuSans-74" transform="translate(173.779297 0.015625)"/>
     <use xlink:href="#DejaVuSans-6f" transform="translate(212.988281 0.015625)"/>
     <use xlink:href="#DejaVuSans-72" transform="translate(274.169922 0.015625)"/>
     <use xlink:href="#DejaVuSans-20" transform="translate(315.283203 0.015625)"/>
     <use xlink:href="#DejaVuSans-64" transform="translate(347.070312 0.015625)"/>
     <use xlink:href="#DejaVuSans-65" transform="translate(410.546875 0.015625)"/>
     <use xlink:href="#DejaVuSans-20" transform="translate(472.070312 0.015625)"/>
     <use xlink:href="#DejaVuSans-61" transform="translate(503.857422 0.015625)"/>
     <use xlink:href="#DejaVuSans-63" transform="translate(565.136719 0.015625)"/>
     <use xlink:href="#DejaVuSans-6f" transform="translate(620.117188 0.015625)"/>
     <use xlink:href="#DejaVuSans-70" transform="translate(681.298828 0.015625)"/>
     <use xlink:href="#DejaVuSans-6c" transform="translate(744.775391 0.015625)"/>
     <use xlink:href="#DejaVuSans-65" transform="translate(772.558594 0.015625)"/>
     <use xlink:href="#DejaVuSans-20" transform="translate(834.082031 0.015625)"/>
     <use xlink:href="#DejaVuSans-Oblique-3bb" transform="translate(865.869141 0.015625)"/>
     <use xlink:href="#DejaVuSans-20" transform="translate(925.048828 0.015625)"/>
     <use xlink:href="#DejaVuSans-70" transform="translate(956.835938 0.015625)"/>
     <use xlink:href="#DejaVuSans-61" transform="translate(1020.3125 0.015625)"/>
     <use xlink:href="#DejaVuSans-72" transform="translate(1081.591797 0.015625)"/>
     <use xlink:href="#DejaVuSans-61" transform="translate(1122.705078 0.015625)"/>
     <use xlink:href="#DejaVuSans-20" transform="translate(1183.984375 0.015625)"/>
     <use xlink:href="#DejaVuSans-64" transform="translate(1215.771484 0.015625)"/>
     <use xlink:href="#DejaVuSans-69" transform="translate(1279.248047 0.015625)"/>
     <use xlink:href="#DejaVuSans-66" transform="translate(1307.03125 0.015625)"/>
     <use xlink:href="#DejaVuSans-65" transform="translate(1342.236328 0.015625)"/>
     <use xlink:href="#DejaVuSans-72" transform="translate(1403.759766 0.015625)"/>
     <use xlink:href="#DejaVuSans-65" transform="translate(1444.873047 0.015625)"/>
     <use xlink:href="#DejaVuSans-6e" transform="translate(1506.396484 0.015625)"/>
     <use xlink:href="#DejaVuSans-74" transform="translate(1569.775391 0.015625)"/>
     <use xlink:href="#DejaVuSans-65" transform="translate(1608.984375 0.015625)"/>
     <use xlink:href="#DejaVuSans-73" transform="translate(1670.507812 0.015625)"/>
     <use xlink:href="#DejaVuSans-20" transform="translate(1722.607422 0.015625)"/>
     <use xlink:href="#DejaVuSans-64" transform="translate(1754.394531 0.015625)"/>
     <use xlink:href="#DejaVuSans-69" transform="translate(1817.871094 0.015625)"/>
     <use xlink:href="#DejaVuSans-73" transform="translate(1845.654297 0.015625)"/>
     <use xlink:href="#DejaVuSans-74" transform="translate(1897.753906 0.015625)"/>
     <use xlink:href="#DejaVuSans-61" transform="translate(1936.962891 0.015625)"/>
     <use xlink:href="#DejaVuSans-6e" transform="translate(1998.242188 0.015625)"/>
     <use xlink:href="#DejaVuSans-63" transform="translate(2061.621094 0.015625)"/>
     <use xlink:href="#DejaVuSans-69" transform="translate(2116.601562 0.015625)"/>
     <use xlink:href="#DejaVuSans-61" transform="translate(2144.384766 0.015625)"/>
     <use xlink:href="#DejaVuSans-73" transform="translate(2205.664062 0.015625)"/>
    </g>
   </g>
   <g id="legend_1">
    <g id="patch_7">
     <path d="M 138.296875 841.7 
L 284.696875 841.7 
Q 288.696875 841.7 288.696875 837.7 
L 288.696875 663.5625 
Q 288.696875 659.5625 284.696875 659.5625 
L 138.296875 659.5625 
Q 134.296875 659.5625 134.296875 663.5625 
L 134.296875 837.7 
Q 134.296875 841.7 138.296875 841.7 
z
" style="fill: #ffffff; opacity: 0.8; stroke: #cccccc; stroke-linejoin: miter"/>
    </g>
    <g id="line2d_33">
     <path d="M 142.296875 675.759375 
L 162.296875 675.759375 
L 182.296875 675.759375 
" style="fill: none; stroke: #1f77b4; stroke-width: 3; stroke-linecap: square"/>
    </g>
    <g id="text_17">
     <!-- $\alpha=$0.01 -->
     <g transform="translate(198.296875 682.759375)scale(0.2 -0.2)">
      <defs>
       <path id="DejaVuSans-Oblique-3b1" d="M 2619 1628 
L 2622 2350 
Q 2625 3088 2069 3091 
Q 1653 3094 1394 2747 
Q 1069 2319 959 1747 
Q 825 1059 994 731 
Q 1169 397 1547 397 
Q 1966 397 2319 1063 
L 2619 1628 
z
M 2166 3578 
Q 3141 3594 3128 2584 
Q 3128 2584 3616 3500 
L 4128 3500 
L 3119 1603 
L 3109 919 
Q 3109 766 3194 638 
Q 3291 488 3391 488 
L 3669 488 
L 3575 0 
L 3228 0 
Q 2934 0 2722 263 
Q 2622 394 2619 669 
Q 2416 334 2066 50 
Q 1900 -81 1453 -78 
Q 722 -72 456 397 
Q 184 884 353 1747 
Q 534 2675 1009 3097 
Q 1544 3569 2166 3578 
z
" transform="scale(0.015625)"/>
       <path id="DejaVuSans-3d" d="M 678 2906 
L 4684 2906 
L 4684 2381 
L 678 2381 
L 678 2906 
z
M 678 1631 
L 4684 1631 
L 4684 1100 
L 678 1100 
L 678 1631 
z
" transform="scale(0.015625)"/>
      </defs>
      <use xlink:href="#DejaVuSans-Oblique-3b1" transform="translate(0 0.78125)"/>
      <use xlink:href="#DejaVuSans-3d" transform="translate(85.400391 0.78125)"/>
      <use xlink:href="#DejaVuSans-30" transform="translate(188.671875 0.78125)"/>
      <use xlink:href="#DejaVuSans-2e" transform="translate(252.294922 0.78125)"/>
      <use xlink:href="#DejaVuSans-30" transform="translate(284.082031 0.78125)"/>
      <use xlink:href="#DejaVuSans-31" transform="translate(347.705078 0.78125)"/>
     </g>
    </g>
    <g id="line2d_34">
     <path d="M 142.296875 705.115625 
L 162.296875 705.115625 
L 182.296875 705.115625 
" style="fill: none; stroke: #ff7f0e; stroke-width: 3; stroke-linecap: square"/>
    </g>
    <g id="text_18">
     <!-- $\alpha=$0.21 -->
     <g transform="translate(198.296875 712.115625)scale(0.2 -0.2)">
      <use xlink:href="#DejaVuSans-Oblique-3b1" transform="translate(0 0.78125)"/>
      <use xlink:href="#DejaVuSans-3d" transform="translate(85.400391 0.78125)"/>
      <use xlink:href="#DejaVuSans-30" transform="translate(188.671875 0.78125)"/>
      <use xlink:href="#DejaVuSans-2e" transform="translate(252.294922 0.78125)"/>
      <use xlink:href="#DejaVuSans-32" transform="translate(278.582031 0.78125)"/>
      <use xlink:href="#DejaVuSans-31" transform="translate(342.205078 0.78125)"/>
     </g>
    </g>
    <g id="line2d_35">
     <path d="M 142.296875 734.471875 
L 162.296875 734.471875 
L 182.296875 734.471875 
" style="fill: none; stroke: #2ca02c; stroke-width: 3; stroke-linecap: square"/>
    </g>
    <g id="text_19">
     <!-- $\alpha=$0.41 -->
     <g transform="translate(198.296875 741.471875)scale(0.2 -0.2)">
      <use xlink:href="#DejaVuSans-Oblique-3b1" transform="translate(0 0.78125)"/>
      <use xlink:href="#DejaVuSans-3d" transform="translate(85.400391 0.78125)"/>
      <use xlink:href="#DejaVuSans-30" transform="translate(188.671875 0.78125)"/>
      <use xlink:href="#DejaVuSans-2e" transform="translate(252.294922 0.78125)"/>
      <use xlink:href="#DejaVuSans-34" transform="translate(284.082031 0.78125)"/>
      <use xlink:href="#DejaVuSans-31" transform="translate(347.705078 0.78125)"/>
     </g>
    </g>
    <g id="line2d_36">
     <path d="M 142.296875 763.828125 
L 162.296875 763.828125 
L 182.296875 763.828125 
" style="fill: none; stroke: #d62728; stroke-width: 3; stroke-linecap: square"/>
    </g>
    <g id="text_20">
     <!-- $\alpha=$0.61 -->
     <g transform="translate(198.296875 770.828125)scale(0.2 -0.2)">
      <use xlink:href="#DejaVuSans-Oblique-3b1" transform="translate(0 0.78125)"/>
      <use xlink:href="#DejaVuSans-3d" transform="translate(85.400391 0.78125)"/>
      <use xlink:href="#DejaVuSans-30" transform="translate(188.671875 0.78125)"/>
      <use xlink:href="#DejaVuSans-2e" transform="translate(252.294922 0.78125)"/>
      <use xlink:href="#DejaVuSans-36" transform="translate(284.082031 0.78125)"/>
      <use xlink:href="#DejaVuSans-31" transform="translate(347.705078 0.78125)"/>
     </g>
    </g>
    <g id="line2d_37">
     <path d="M 142.296875 793.184375 
L 162.296875 793.184375 
L 182.296875 793.184375 
" style="fill: none; stroke: #9467bd; stroke-width: 3; stroke-linecap: square"/>
    </g>
    <g id="text_21">
     <!-- $\alpha=$0.81 -->
     <g transform="translate(198.296875 800.184375)scale(0.2 -0.2)">
      <use xlink:href="#DejaVuSans-Oblique-3b1" transform="translate(0 0.78125)"/>
      <use xlink:href="#DejaVuSans-3d" transform="translate(85.400391 0.78125)"/>
      <use xlink:href="#DejaVuSans-30" transform="translate(188.671875 0.78125)"/>
      <use xlink:href="#DejaVuSans-2e" transform="translate(252.294922 0.78125)"/>
      <use xlink:href="#DejaVuSans-38" transform="translate(281.457031 0.78125)"/>
      <use xlink:href="#DejaVuSans-31" transform="translate(345.080078 0.78125)"/>
     </g>
    </g>
    <g id="line2d_38">
     <path d="M 142.296875 822.540625 
L 162.296875 822.540625 
L 182.296875 822.540625 
" style="fill: none; stroke: #8c564b; stroke-width: 3; stroke-linecap: square"/>
    </g>
    <g id="text_22">
     <!-- $\alpha=$1.01 -->
     <g transform="translate(198.296875 829.540625)scale(0.2 -0.2)">
      <use xlink:href="#DejaVuSans-Oblique-3b1" transform="translate(0 0.78125)"/>
      <use xlink:href="#DejaVuSans-3d" transform="translate(85.400391 0.78125)"/>
      <use xlink:href="#DejaVuSans-31" transform="translate(188.671875 0.78125)"/>
      <use xlink:href="#DejaVuSans-2e" transform="translate(252.294922 0.78125)"/>
      <use xlink:href="#DejaVuSans-30" transform="translate(284.082031 0.78125)"/>
      <use xlink:href="#DejaVuSans-31" transform="translate(347.705078 0.78125)"/>
     </g>
    </g>
   </g>
  </g>
 </g>
 <defs>
  <clipPath id="p805c837b3c">
   <rect x="124.296875" y="36.3" width="837" height="815.4"/>
  </clipPath>
 </defs>
</svg>
